
<!-- Created with Inkscape (http://www.inkscape.org/) by Marsupilami -->
<svg width="64" height="64" viewBox="-1.11326787 -1.11326787 165.82231574 39.33546474">

  <defs
     id="defs232" />
  <path
     id="prefix__Path_5"
     d="m 19.935063,4.5340333 a 0.554,0.554 0 1 0 0.4,0.162 0.559,0.559 0 0 0 -0.4,-0.162 z M 9.6680626,11.778033 a 0.559,0.559 0 1 0 0.5590004,0.558 0.564,0.564 0 0 0 -0.5590004,-0.558 z m -2.481,12.486 a 0.559,0.559 0 1 0 -0.559,-0.559 0.544,0.544 0 0 0 0.559,0.559 z M 15.303063,3.3326154e-5 A 15.34,15.34 0 1 0 26.173063,4.4790333 15.352,15.352 0 0 0 15.303063,3.3326154e-5 Z M 10.062063,21.717033 a 8.141,8.141 0 0 1 -2.4800004,-8.838 0.533,0.533 0 0 0 0.46,0.23 0.559,0.559 0 1 0 0,-1.117 0.208,0.208 0 0 0 -0.1,0.016 8.131,8.131 0 1 1 10.6020004,10.942 0.362,0.362 0 0 0 0.016,-0.131 0.559,0.559 0 0 0 -1.117,0 0.6,0.6 0 0 0 0.23,0.46 8.2,8.2 0 0 1 -2.382,0.361 8.3,8.3 0 0 1 -1.446,-0.131 l 0.411,-3.122 a 5.568,5.568 0 0 0 1.051,0.115 5,5 0 0 0 4.846,-3.762 0.546,0.546 0 0 0 0.46,0.246 0.559,0.559 0 0 0 0,-1.117 0.592,0.592 0 0 0 -0.329,0.1 4.616,4.616 0 0 0 0.016,-0.476 5.011,5.011 0 1 0 -8.3,3.778 z m 1.082,-6.226 a 4.134,4.134 0 1 1 3.236,4.041 l 0.509,-3.762 a 0.533,0.533 0 0 0 0.46,0.23 0.559,0.559 0 1 0 -0.559,-0.559 0.567,0.567 0 0 0 0.082,0.3 l -2.3,2.875 a 4.071,4.071 0 0 1 -1.43,-3.122 z m 4.173,12.945 a 14.956,14.956 0 0 1 -2.119,-0.164 l 0.526,-3.926 a 9.884,9.884 0 0 0 1.577,0.131 9.023,9.023 0 1 0 -5.7830004,-2.086 l -2.464,3.088 a 13,13 0 1 1 8.2630004,2.957 z"
     class="prefix__cls-2"
     data-name="Path 5"
     style="fill:#000000;fill-opacity:1" />
</svg>
